<?xml version="1.0" standalone="no"?>
<!DOCTYPE svg PUBLIC "-//W3C//DTD SVG 20010904//EN"
 "http://www.w3.org/TR/2001/REC-SVG-20010904/DTD/svg10.dtd">
<svg version="1.0" xmlns="http://www.w3.org/2000/svg"
 width="512.000000pt" height="512.000000pt" viewBox="0 0 512.000000 512.000000"
 preserveAspectRatio="xMidYMid meet">

<g transform="translate(0.000000,512.000000) scale(0.100000,-0.100000)"
fill="#000000" stroke="none">
<path d="M467 4949 c-111 -26 -210 -108 -264 -217 l-38 -76 0 -1136 0 -1136
38 -76 c44 -91 102 -146 197 -192 l65 -31 468 -3 c257 -2 467 -6 467 -10 0 -4
-57 -166 -127 -359 l-128 -353 -228 0 -228 0 -26 -26 c-24 -24 -25 -30 -20
-92 13 -141 101 -261 237 -326 l65 -31 542 -3 542 -3 21 -34 c34 -55 65 -59
176 -25 53 17 102 30 109 30 16 0 115 -99 115 -115 0 -7 -14 -57 -30 -111 -26
-83 -29 -103 -19 -126 20 -48 277 -198 340 -198 25 0 44 14 112 85 l82 86 50
-15 c28 -7 61 -17 76 -20 23 -5 27 -14 49 -112 13 -58 31 -115 40 -126 20 -26
84 -37 210 -37 126 0 190 11 210 37 9 11 27 67 40 125 l23 105 76 21 76 20 82
-84 c68 -70 88 -85 113 -85 35 0 142 52 252 122 102 65 106 78 68 204 -17 53
-30 102 -30 110 0 15 100 113 116 114 6 0 55 -13 108 -30 126 -38 139 -34 204
68 71 110 122 217 122 253 0 25 -14 44 -85 112 l-84 82 20 75 21 75 105 25
c58 13 114 31 125 40 26 20 37 85 37 210 0 125 -11 190 -37 210 -11 9 -67 27
-125 40 l-105 25 -21 75 -20 75 84 82 c71 68 85 87 85 112 0 63 -150 320 -198
340 -23 10 -43 7 -126 -19 -54 -16 -104 -30 -110 -30 -16 1 -116 99 -116 114
0 8 13 57 30 110 38 125 34 139 -66 203 l-74 46 0 731 c0 578 -3 741 -14 781
-32 121 -102 207 -214 262 l-76 38 -1675 2 c-954 0 -1692 -3 -1714 -8z m3376
-165 c57 -19 128 -93 145 -152 9 -29 12 -224 12 -726 l0 -686 -26 0 c-19 0
-46 -21 -107 -85 l-82 -84 -76 21 -76 20 -22 102 c-12 55 -30 112 -40 126 -25
34 -90 43 -260 37 -129 -4 -136 -6 -156 -30 -14 -15 -31 -63 -45 -123 -12 -55
-25 -102 -29 -107 -4 -4 -38 -16 -77 -27 l-69 -20 -81 85 c-71 74 -86 85 -115
85 -65 0 -318 -148 -338 -198 -9 -21 -8 -38 4 -77 8 -28 15 -53 15 -57 0 -5
-364 -8 -810 -8 l-810 0 0 480 0 480 400 0 400 0 0 80 0 80 -400 0 -400 0 0
240 0 240 1360 0 1360 0 0 -480 0 -480 80 0 80 0 0 535 0 536 -25 24 -24 25
-1471 0 -1471 0 -24 -25 -25 -24 0 -856 0 -855 -160 0 -160 0 0 856 c0 643 3
867 12 898 15 51 99 137 148 153 25 8 510 11 1676 12 1475 1 1645 -1 1687 -15z
m-1820 -2146 c-82 -125 -136 -239 -128 -271 4 -14 31 -49 61 -77 l53 -51 -757
3 c-754 3 -757 3 -797 25 -47 25 -85 64 -111 113 -15 29 -19 63 -22 188 l-4
152 880 0 880 0 -55 -82z m345 56 l-26 -26 -83 25 -84 26 110 0 110 1 -27 -26z
m1156 -572 c91 -42 149 -100 194 -190 35 -72 37 -81 37 -172 0 -91 -2 -100
-37 -172 -45 -91 -103 -147 -196 -191 -61 -29 -76 -32 -162 -32 -86 0 -101 3
-162 32 -93 44 -151 100 -196 191 -35 72 -37 81 -37 171 0 87 3 102 32 163 40
85 97 147 172 186 78 42 122 52 213 48 61 -3 92 -11 142 -34z m-1621 -953
c-15 -30 -14 -35 5 -81 l21 -49 -477 3 c-525 3 -505 1 -575 67 -26 23 -57 71
-57 86 0 3 247 5 549 5 l549 0 -15 -31z"/>
<path d="M960 4240 l0 -80 80 0 80 0 0 80 0 80 -80 0 -80 0 0 -80z"/>
<path d="M1280 4240 l0 -80 80 0 80 0 0 80 0 80 -80 0 -80 0 0 -80z"/>
<path d="M1600 4240 l0 -80 80 0 80 0 0 80 0 80 -80 0 -80 0 0 -80z"/>
<path d="M2957 4163 l-57 -58 90 -90 90 -90 -547 -5 -548 -5 -67 -32 c-93 -44
-151 -100 -196 -191 l-37 -76 -3 -288 -3 -288 80 0 81 0 0 256 c0 172 4 270
12 298 16 55 99 138 154 154 30 9 182 12 560 12 l519 0 -88 -88 c-48 -48 -87
-92 -87 -98 0 -13 92 -104 106 -104 5 0 85 76 177 168 150 151 167 172 167
202 0 30 -17 51 -173 207 l-172 174 -58 -58z"/>
</g>
</svg>
