<?xml version="1.0" encoding="utf-8"?>
<!-- Generator: Adobe Illustrator 16.0.0, SVG Export Plug-In . SVG Version: 6.00 Build 0)  -->
<!DOCTYPE svg PUBLIC "-//W3C//DTD SVG 1.1//EN" "http://www.w3.org/Graphics/SVG/1.1/DTD/svg11.dtd">
<svg version="1.1" id="Layer_1" xmlns="http://www.w3.org/2000/svg" xmlns:xlink="http://www.w3.org/1999/xlink" x="0px" y="0px"
	 width="1400px" height="980px" viewBox="0 0 1400 980" enable-background="new 0 0 1400 980" xml:space="preserve">
<g>
	<g>
		<g>
			<rect fill="#FFFFFF" width="1400" height="980"/>
		</g>
	</g>
	<g>
		<path fill="#00AFA1" d="M1093.2,498.7c0,108.8-88.2,196.9-196.9,196.9H473.7c-108.8,0-196.9-88.2-196.9-196.9l0,0
			c0-108.8,88.2-196.9,196.9-196.9h422.6C1005,301.8,1093.2,389.9,1093.2,498.7L1093.2,498.7z"/>
		<path d="M896.3,697.8H473.7c-109.8,0-199.1-89.3-199.1-199.1c0-109.8,89.3-199.1,199.1-199.1h422.6
			c109.8,0,199.1,89.3,199.1,199.1C1095.4,608.5,1006.1,697.8,896.3,697.8z M473.7,303.9c-107.4,0-194.8,87.4-194.8,194.8
			c0,107.4,87.4,194.8,194.8,194.8h422.6c107.4,0,194.8-87.4,194.8-194.8c0-107.4-87.4-194.8-194.8-194.8H473.7z"/>
	</g>
	<g>
		<path fill="#00A193" d="M1031.5,548c0,28.3-22.9,51.2-51.2,51.2H402.5c-28.3,0-51.2-22.9-51.2-51.2l0,0
			c0-28.3,22.9-51.2,51.2-51.2h577.8C1008.6,496.9,1031.5,519.8,1031.5,548L1031.5,548z"/>
	</g>
	<g>
		<g>
			<path fill="#F1F2F2" d="M354.9,468.7h98.6v94.8h-98.6c15.7,29.7,45.8,49.8,80.3,49.8c39.1,0,72.6-25.8,85.9-62.2h249.4
				c18.3,0,33.1-15.6,33.1-34.9c0-19.3-14.8-35-33.1-35H521.1c-13.3-36.4-46.7-62.2-85.8-62.2C400.7,419,370.7,439.1,354.9,468.7z"
				/>
			<path d="M435.3,615.4L435.3,615.4c-34.1,0-65.6-19.5-82.2-50.9c-0.4-0.7-0.3-1.5,0.1-2.1c0.4-0.6,1.1-1,1.8-1h96.5v-90.5h-96.5
				c-0.8,0-1.5-0.4-1.8-1c-0.4-0.6-0.4-1.4-0.1-2.1c16.7-31.4,48.2-50.9,82.2-50.9c38.2,0,73.1,24.9,87.3,62.2h247.9
				c19.4,0,35.2,16.6,35.2,37.1c0,20.5-15.8,37.1-35.2,37.1H522.6C508.3,590.5,473.4,615.4,435.3,615.4z M358.6,565.7
				c16.3,28.1,45.3,45.5,76.7,45.5v2.1l0-2.1c36.9,0,70.5-24.4,83.8-60.8c0.3-0.8,1.1-1.4,2-1.4h249.4c17.1,0,30.9-14.7,30.9-32.8
				c0-18.1-13.9-32.8-30.9-32.8H521.1c-0.9,0-1.7-0.6-2-1.4c-13.3-36.4-47-60.8-83.8-60.8c-31.3,0-60.4,17.3-76.7,45.5h95
				c1.2,0,2.1,1,2.1,2.1v94.8c0,1.2-1,2.1-2.1,2.1H358.6z"/>
		</g>
		<g>
			<path fill="#FFFFFF" d="M766.4,498.5c9.2,0,16.7,7.9,16.7,17.6c0,9.7-7.5,17.6-16.7,17.6c-9.2,0-16.7-7.9-16.7-17.6
				C749.8,506.4,757.2,498.5,766.4,498.5z"/>
			<path d="M766.4,535.9c-5.1,0-9.8-2.1-13.4-5.8c-3.5-3.7-5.5-8.7-5.5-13.9c0-10.9,8.4-19.8,18.8-19.8c10.4,0,18.8,8.9,18.8,19.8
				C785.3,527,776.8,535.9,766.4,535.9z M766.4,500.7c-8,0-14.5,6.9-14.5,15.5c0,4.1,1.5,8,4.3,11c2.7,2.9,6.4,4.5,10.2,4.5
				c8,0,14.5-6.9,14.5-15.4C781,507.6,774.5,500.7,766.4,500.7z"/>
		</g>
	</g>
	<g>
		<polygon fill="#FFE49B" points="775.1,396 717.7,349.9 609.4,349.9 609.4,396 609.4,607.5 901.2,607.5 901.2,396 		"/>
		<path d="M901.2,609.7H609.4c-1.2,0-2.1-1-2.1-2.1V349.9c0-1.2,1-2.1,2.1-2.1h108.3c0.5,0,1,0.2,1.3,0.5l56.7,45.6h125.4
			c1.2,0,2.1,1,2.1,2.1v211.5C903.4,608.7,902.4,609.7,901.2,609.7z M611.6,605.4h287.5V398.2h-124c-0.5,0-1-0.2-1.3-0.5L717,352.1
			H611.6V605.4z"/>
	</g>
	<g>
		<polygon fill="#FFFFFF" points="1216.1,726.1 1169.4,688.5 1081,688.5 1081,726.1 1081,898.5 1319,898.5 1319,726.1 		"/>
		<path d="M1319,900.7h-238c-1.2,0-2.1-1-2.1-2.1v-210c0-1.2,1-2.1,2.1-2.1h88.3c0.5,0,1,0.2,1.3,0.5l46.2,37.1H1319
			c1.2,0,2.1,1,2.1,2.1v172.5C1321.2,899.7,1320.2,900.7,1319,900.7z M1083.2,896.4h233.7V728.2h-100.7c-0.5,0-1-0.2-1.3-0.5
			l-46.2-37.1h-85.4V896.4z"/>
	</g>
	<g>
		<rect x="643.3" y="426.2" fill="#EBD08F" width="96.2" height="41.3"/>
		<path d="M739.5,469.6h-96.2c-1.2,0-2.1-1-2.1-2.1v-41.3c0-1.2,1-2.1,2.1-2.1h96.2c1.2,0,2.1,1,2.1,2.1v41.3
			C741.6,468.6,740.7,469.6,739.5,469.6z M645.5,465.3h91.9v-37h-91.9V465.3z"/>
	</g>
	<g>
		<rect x="643.3" y="490" fill="#EBD08F" width="96.2" height="41.3"/>
		<path d="M739.5,533.4h-96.2c-1.2,0-2.1-1-2.1-2.1V490c0-1.2,1-2.1,2.1-2.1h96.2c1.2,0,2.1,1,2.1,2.1v41.3
			C741.6,532.5,740.7,533.4,739.5,533.4z M645.5,529.1h91.9v-37h-91.9V529.1z"/>
	</g>
	<g>
		<path d="M771.6,566.5H643.3c-1.2,0-2.1-1-2.1-2.1c0-1.2,1-2.1,2.1-2.1h128.3c1.2,0,2.1,1,2.1,2.1
			C773.7,565.6,772.8,566.5,771.6,566.5z"/>
	</g>
	<g>
		<g>
			<path fill="#FF7389" d="M972,632.5c0,6.5-5.5,11.7-12.3,11.7h-117c-6.8,0-12.3-5.2-12.3-11.7V550c0-6.4,5.5-11.7,12.3-11.7h117
				c6.8,0,12.3,5.2,12.3,11.7V632.5z"/>
			<path d="M959.7,646.4h-117c-8,0-14.5-6.2-14.5-13.8V550c0-7.6,6.5-13.8,14.5-13.8h117c8,0,14.5,6.2,14.5,13.8v82.6
				C974.2,640.2,967.7,646.4,959.7,646.4z M842.7,540.4c-5.6,0-10.2,4.3-10.2,9.5v82.6c0,5.3,4.6,9.5,10.2,9.5h117
				c5.6,0,10.2-4.3,10.2-9.5V550c0-5.2-4.6-9.5-10.2-9.5H842.7z"/>
		</g>
		<g>
			<path fill="#FFFFFF" d="M917.1,582.8c0,8.3-7.1,15.1-15.9,15.1c-8.8,0-15.9-6.7-15.9-15.1c0-8.3,7.1-15.1,15.9-15.1
				C910,567.8,917.1,574.5,917.1,582.8z"/>
			<path d="M901.2,600c-9.9,0-18-7.7-18-17.2s8.1-17.2,18-17.2c10,0,18.1,7.7,18.1,17.2S911.2,600,901.2,600z M901.2,569.9
				c-7.6,0-13.7,5.8-13.7,12.9c0,7.1,6.2,12.9,13.7,12.9c7.6,0,13.8-5.8,13.8-12.9C915,575.7,908.8,569.9,901.2,569.9z"/>
		</g>
		<g>
			<line fill="#FFFFFF" x1="901.2" y1="597.9" x2="901.2" y2="619.7"/>
			<path d="M901.2,621.9c-1.2,0-2.1-1-2.1-2.1v-21.9c0-1.2,1-2.1,2.1-2.1c1.2,0,2.1,1,2.1,2.1v21.9
				C903.4,620.9,902.4,621.9,901.2,621.9z"/>
		</g>
		<g>
			<path d="M948.3,540.4h-94c-1.2,0-2.1-1-2.1-2.1v-25.7c0-21.9,18.7-39.6,41.7-39.6h14.9c23,0,41.7,17.8,41.7,39.6v25.7
				C950.4,539.5,949.4,540.4,948.3,540.4z M856.4,536.1h89.8v-23.5c0-19.5-16.8-35.3-37.4-35.3h-14.9c-20.7,0-37.5,15.9-37.5,35.3
				V536.1z"/>
		</g>
	</g>
	<g>
		<g>
			<rect x="78.1" y="646.5" fill="#FFFFFF" width="161.9" height="39.4"/>
			<path d="M240,688.1H78.1c-1.2,0-2.1-1-2.1-2.1v-39.4c0-1.2,1-2.1,2.1-2.1H240c1.2,0,2.1,1,2.1,2.1v39.4
				C242.2,687.1,241.2,688.1,240,688.1z M80.3,683.8h157.6v-35.1H80.3V683.8z"/>
		</g>
		<g>
			<rect x="78.1" y="372.4" fill="#FFFFFF" width="161.9" height="30.8"/>
			<path d="M240,405.4H78.1c-1.2,0-2.1-1-2.1-2.1v-30.8c0-1.2,1-2.1,2.1-2.1H240c1.2,0,2.1,1,2.1,2.1v30.8
				C242.2,404.4,241.2,405.4,240,405.4z M80.3,401.1h157.6v-26.5H80.3V401.1z"/>
		</g>
		<g>
			<rect x="78.1" y="403.2" fill="#FFFFFF" width="161.9" height="243.3"/>
			<path d="M240,648.7H78.1c-1.2,0-2.1-1-2.1-2.1V403.2c0-1.2,1-2.1,2.1-2.1H240c1.2,0,2.1,1,2.1,2.1v243.3
				C242.2,647.7,241.2,648.7,240,648.7z M80.3,644.4h157.6v-239H80.3V644.4z"/>
		</g>
	</g>
	<g>
		<line fill="#FFFFFF" x1="134" y1="666.2" x2="184.1" y2="666.2"/>
		<path d="M184.1,668.4H134c-1.2,0-2.1-1-2.1-2.1c0-1.2,1-2.1,2.1-2.1h50.1c1.2,0,2.1,1,2.1,2.1
			C186.3,667.4,185.3,668.4,184.1,668.4z"/>
	</g>
	<g>
		<polygon fill="#FFFFFF" points="799.5,168.7 799.5,92.3 1034.5,92.3 1034.5,245.1 799.5,245.1 744.8,245.1 		"/>
		<path d="M1034.5,247.3H744.8c-0.8,0-1.5-0.4-1.9-1.2c-0.4-0.7-0.3-1.6,0.2-2.2l54.3-75.8V92.3c0-1.2,1-2.1,2.1-2.1h234.9
			c1.2,0,2.1,1,2.1,2.1v152.8C1036.6,246.3,1035.6,247.3,1034.5,247.3z M749,243h283.3V94.5H801.7v74.2c0,0.4-0.1,0.9-0.4,1.3
			L749,243z"/>
	</g>
	<g>
		<g>
			<polygon fill="#FFFFFF" points="419.9,92.3 419.9,279.1 279,185.7 			"/>
			<path d="M419.9,281.2c-0.4,0-0.8-0.1-1.2-0.4l-140.8-93.4c-0.6-0.4-1-1.1-1-1.8s0.4-1.4,1-1.8l140.8-93.4
				c0.7-0.4,1.5-0.5,2.2-0.1c0.7,0.4,1.1,1.1,1.1,1.9v186.7c0,0.8-0.4,1.5-1.1,1.9C420.6,281.1,420.2,281.2,419.9,281.2z
				 M282.9,185.7l134.8,89.4V96.3L282.9,185.7z"/>
		</g>
		<g>
			<polygon fill="#FFFFFF" points="219,185.7 78.1,279.1 78.1,92.3 			"/>
			<path d="M78.1,281.2c-0.3,0-0.7-0.1-1-0.3c-0.7-0.4-1.1-1.1-1.1-1.9V92.3c0-0.8,0.4-1.5,1.1-1.9c0.7-0.4,1.5-0.3,2.2,0.1
				l140.9,93.4c0.6,0.4,1,1.1,1,1.8s-0.4,1.4-1,1.8L79.3,280.8C78.9,281.1,78.5,281.2,78.1,281.2z M80.3,96.3v178.7l134.8-89.4
				L80.3,96.3z"/>
		</g>
		<g>
			<polygon fill="#FFFFFF" points="419.9,92.3 279,185.7 249,205.6 219,185.7 78.1,92.3 			"/>
			<path d="M249,207.8c-0.4,0-0.8-0.1-1.2-0.4L76.9,94.1c-0.8-0.5-1.1-1.5-0.9-2.4c0.3-0.9,1.1-1.5,2.1-1.5h341.8
				c0.9,0,1.8,0.6,2.1,1.5c0.3,0.9-0.1,1.9-0.9,2.4L250.2,207.4C249.8,207.6,249.4,207.8,249,207.8z M85.2,94.5L249,203L412.8,94.5
				H85.2z"/>
		</g>
		<g>
			<polygon fill="#FFFFFF" points="219,185.7 249,205.6 279,185.7 419.9,279.1 78.1,279.1 			"/>
			<path d="M420,281.2C419.9,281.2,419.9,281.2,420,281.2H78.1c-0.9,0-1.8-0.6-2.1-1.5c-0.3-0.9,0.1-1.9,0.9-2.4l140.9-93.4
				c0.7-0.5,1.7-0.5,2.4,0L249,203l28.8-19.1c0.7-0.5,1.7-0.5,2.4,0l140.5,93.2c0.8,0.3,1.4,1.1,1.4,2
				C422.1,280.2,421.2,281.2,420,281.2z M85.2,276.9h327.5L279,188.3l-28.8,19.1c-0.7,0.5-1.7,0.5-2.4,0L219,188.3L85.2,276.9z"/>
		</g>
	</g>
	<g>
		<rect x="472.2" y="94.7" fill="#FFFFFF" width="63.7" height="63.7"/>
		<path d="M535.9,160.5h-63.7c-1.2,0-2.1-1-2.1-2.1V94.7c0-1.2,1-2.1,2.1-2.1h63.7c1.2,0,2.1,1,2.1,2.1v63.7
			C538.1,159.6,537.1,160.5,535.9,160.5z M474.4,156.2h59.4V96.8h-59.4V156.2z"/>
	</g>
	<g>
		<path fill="#231F20" d="M725.2,205.4h-253c-1.2,0-2.1-1-2.1-2.1s1-2.1,2.1-2.1h253c1.2,0,2.1,1,2.1,2.1S726.4,205.4,725.2,205.4z"
			/>
	</g>
	<g>
		<path fill="#231F20" d="M725.2,159.7H560.6c-1.2,0-2.1-1-2.1-2.1c0-1.2,1-2.1,2.1-2.1h164.7c1.2,0,2.1,1,2.1,2.1
			C727.4,158.8,726.4,159.7,725.2,159.7z"/>
	</g>
	<g>
		<path fill="#231F20" d="M725.2,113.6H560.6c-1.2,0-2.1-1-2.1-2.1c0-1.2,1-2.1,2.1-2.1h164.7c1.2,0,2.1,1,2.1,2.1
			C727.4,112.6,726.4,113.6,725.2,113.6z"/>
	</g>
	<g>
		<line fill="#FFFFFF" x1="198.2" y1="438.3" x2="119.9" y2="516.7"/>
		<path d="M119.9,518.8c-0.5,0-1.1-0.2-1.5-0.6c-0.8-0.8-0.8-2.2,0-3l78.4-78.4c0.8-0.8,2.2-0.8,3,0c0.8,0.8,0.8,2.2,0,3l-78.4,78.4
			C121,518.6,120.4,518.8,119.9,518.8z"/>
	</g>
	<g>
		<line fill="#FFFFFF" x1="198.2" y1="533" x2="119.9" y2="611.4"/>
		<path d="M119.9,613.6c-0.5,0-1.1-0.2-1.5-0.6c-0.8-0.8-0.8-2.2,0-3l78.4-78.4c0.8-0.8,2.2-0.8,3,0s0.8,2.2,0,3l-78.4,78.4
			C121,613.3,120.4,613.6,119.9,613.6z"/>
	</g>
	<g>
		<path d="M159.1,345.6c-1.2,0-2.1-1-2.1-2.1v-64.4c0-1.2,1-2.1,2.1-2.1c1.2,0,2.1,1,2.1,2.1v64.4
			C161.2,344.7,160.3,345.6,159.1,345.6z"/>
	</g>
	<g>
		<rect x="1096.5" y="92.3" fill="#FFFFFF" width="222.5" height="222.5"/>
		<path d="M1319,317h-222.5c-1.2,0-2.1-1-2.1-2.1V92.3c0-1.2,1-2.1,2.1-2.1H1319c1.2,0,2.1,1,2.1,2.1v222.5
			C1321.2,316,1320.2,317,1319,317z M1098.6,312.7h218.2V94.5h-218.2V312.7z"/>
	</g>
	<g>
		<g>
			<path d="M1295.5,207.8h-41.8c-1.2,0-2.1-1-2.1-2.1c0-17.1-4-33.3-11.8-48.4c-0.3-0.6-0.3-1.2-0.1-1.8c0.2-0.6,0.7-1,1.3-1.2
				c9.5-3.2,18.4-7.6,26.6-13.3c0.8-0.6,2-0.5,2.7,0.2c17.6,17.1,27.4,40,27.4,64.6C1297.7,206.8,1296.7,207.8,1295.5,207.8z
				 M1255.9,203.5h37.5c-0.5-22-9.3-42.5-24.8-58.1c-7.4,5-15.5,9-23.9,12.1C1251.7,171.7,1255.6,187.5,1255.9,203.5z"/>
		</g>
		<g>
			<path d="M1268.8,270.8c-0.4,0-0.9-0.1-1.2-0.4c-8.2-5.7-17.2-10.2-26.6-13.3c-0.6-0.2-1.1-0.7-1.3-1.2c-0.2-0.6-0.2-1.2,0.1-1.8
				c7.9-15.1,11.8-31.4,11.8-48.4c0-1.2,1-2.1,2.1-2.1h41.8c1.2,0,2.1,1,2.1,2.1c0,24.5-9.7,47.5-27.4,64.6
				C1269.9,270.6,1269.4,270.8,1268.8,270.8z M1244.7,253.8c8.4,3,16.4,7.1,23.9,12.1c15.5-15.6,24.3-36.1,24.8-58.1h-37.5
				C1255.6,223.9,1251.8,239.4,1244.7,253.8z"/>
		</g>
		<g>
			<path d="M1241.7,158.4c-0.8,0-1.5-0.4-1.9-1.2c-7.8-14.9-19.2-27.9-33-37.6c-0.8-0.5-1.1-1.5-0.8-2.4c0.3-0.9,1.1-1.5,2-1.5
				c0,0,0,0,0,0c23.4,0.1,45.5,9.1,62.3,25.4c0.5,0.4,0.7,1.1,0.6,1.7c-0.1,0.6-0.4,1.2-0.9,1.6c-8.5,5.9-17.8,10.6-27.7,13.9
				C1242.1,158.3,1241.9,158.4,1241.7,158.4z M1214.8,120.3c11.4,9.1,20.9,20.5,27.9,33.3c8-2.8,15.6-6.6,22.7-11.3
				C1251.3,129.5,1233.7,121.8,1214.8,120.3z"/>
		</g>
		<g>
			<path d="M1146.7,270.8c-0.5,0-1.1-0.2-1.5-0.6c-17.6-17.1-27.4-40-27.4-64.6c0-1.2,1-2.1,2.1-2.1h41.8c1.2,0,2.1,1,2.1,2.1
				c0,17,4,33.3,11.8,48.4c0.3,0.6,0.3,1.2,0.1,1.8s-0.7,1-1.3,1.2c-9.5,3.2-18.4,7.6-26.6,13.3
				C1147.5,270.6,1147.1,270.8,1146.7,270.8z M1122.1,207.8c0.5,22,9.3,42.5,24.8,58.1c7.4-5,15.5-9,23.9-12.1
				c-7.1-14.4-10.9-29.9-11.2-46H1122.1z"/>
		</g>
		<g>
			<path d="M1161.8,207.8H1120c-1.2,0-2.1-1-2.1-2.1c0-24.5,9.7-47.5,27.4-64.6c0.7-0.7,1.9-0.8,2.7-0.2
				c8.2,5.7,17.1,10.2,26.6,13.3c0.6,0.2,1.1,0.7,1.3,1.2c0.2,0.6,0.2,1.2-0.1,1.8c-7.9,15.1-11.8,31.3-11.8,48.4
				C1163.9,206.8,1162.9,207.8,1161.8,207.8z M1122.1,203.5h37.5c0.3-15.9,4.2-31.8,11.2-46c-8.4-3-16.4-7.1-23.9-12.1
				C1131.4,161,1122.7,181.5,1122.1,203.5z"/>
		</g>
		<g>
			<path d="M1253.7,207.8h-92c-1.2,0-2.1-1-2.1-2.1c0-17.5,4.3-34.9,12.3-50.4c0.5-0.9,1.6-1.4,2.6-1c21.5,7.2,44.9,7.2,66.5,0
				c1-0.3,2.1,0.1,2.6,1c8.1,15.5,12.3,32.9,12.3,50.4C1255.9,206.8,1254.9,207.8,1253.7,207.8z M1163.9,203.5h87.7
				c-0.3-15.7-4-30.7-11-44.6c-21.3,6.7-44.4,6.7-65.7,0C1167.9,172.8,1164.2,187.8,1163.9,203.5z"/>
		</g>
		<g>
			<path d="M1241.7,257.2c-0.2,0-0.5,0-0.7-0.1c-21.5-7.2-45-7.2-66.5,0c-1,0.3-2.1-0.1-2.6-1c-8.2-15.7-12.3-32.6-12.3-50.4
				c0-1.2,1-2.1,2.1-2.1h92c1.2,0,2.1,1,2.1,2.1c0,17.8-4.1,34.7-12.3,50.4C1243.2,256.7,1242.4,257.2,1241.7,257.2z M1207.7,247.4
				c11.2,0,22.2,1.7,32.8,5.1c7-14,10.7-29,11-44.6h-87.7c0.3,15.7,4,30.7,11,44.6C1185.5,249.1,1196.6,247.4,1207.7,247.4z"/>
		</g>
		<g>
			<path d="M1173.8,158.4c-0.2,0-0.5,0-0.7-0.1c-9.9-3.3-19.2-8-27.7-13.9c-0.5-0.4-0.9-0.9-0.9-1.6c-0.1-0.6,0.2-1.3,0.6-1.7
				c16.8-16.3,38.9-25.3,62.3-25.4c0,0,0,0,0,0c0.9,0,1.8,0.6,2,1.5c0.3,0.9,0,1.9-0.8,2.4c-13.8,9.7-25.2,22.7-33,37.6
				C1175.4,157.9,1174.6,158.4,1173.8,158.4z M1150.1,142.3c7.1,4.7,14.7,8.4,22.7,11.3c6.9-12.8,16.5-24.2,27.9-33.3
				C1181.8,121.8,1164.2,129.5,1150.1,142.3z"/>
		</g>
		<g>
			<path d="M1208,120c-0.9,0-2.1-0.6-2.4-1.5c-0.3-0.9-0.1-1.9,0.6-2.4c0.8-0.6,2-0.7,2.8-0.2c0.8,0.5,1.2,1.6,0.9,2.5
				C1209.6,119.3,1208.9,120,1208,120z"/>
		</g>
		<g>
			<path d="M1207.7,163.9c-11.8,0-23.4-1.9-34.6-5.6c-0.6-0.2-1.1-0.7-1.3-1.2c-0.2-0.6-0.2-1.2,0.1-1.8c8.1-15.5,20-29.1,34.3-39.1
				c0.4-0.3,0.8-0.4,1.2-0.4c0,0,0.4,0,0.5,0c0.4,0,0.9,0.2,1.2,0.4c14.4,10.1,26.3,23.6,34.3,39.1c0.3,0.6,0.3,1.2,0.1,1.8
				c-0.2,0.6-0.7,1-1.3,1.2C1231.1,162,1219.5,163.9,1207.7,163.9z M1177,155c20,6.1,41.6,6.1,61.6,0c-7.5-13.6-18.1-25.5-30.8-34.7
				C1195.1,129.4,1184.5,141.3,1177,155z"/>
		</g>
		<g>
			<path d="M1208,295.5c-0.9,0-1.8-0.6-2-1.5c-0.3-0.9,0-1.9,0.8-2.4c13.8-9.7,25.2-22.7,33-37.6c0.5-0.9,1.6-1.4,2.6-1
				c9.8,3.3,19.2,8,27.7,13.9c0.5,0.4,0.9,1,0.9,1.6c0.1,0.6-0.2,1.3-0.6,1.7C1253.5,286.5,1231.4,295.5,1208,295.5
				C1208,295.5,1208,295.5,1208,295.5z M1242.7,257.6c-7,12.8-16.5,24.2-27.9,33.3c18.8-1.5,36.5-9.2,50.6-22
				C1258.3,264.2,1250.7,260.5,1242.7,257.6z"/>
		</g>
		<g>
			<path d="M1207.5,295.5C1207.5,295.5,1207.5,295.5,1207.5,295.5c-23.4-0.1-45.5-9.1-62.3-25.4c-0.5-0.4-0.7-1.1-0.6-1.7
				c0.1-0.6,0.4-1.2,0.9-1.6c8.5-5.9,17.9-10.6,27.7-13.9c1-0.3,2.1,0.1,2.6,1c7.8,14.9,19.2,27.9,33,37.6c0.8,0.5,1.1,1.5,0.8,2.4
				C1209.3,294.9,1208.4,295.5,1207.5,295.5z M1150.1,268.9c14.1,12.8,31.7,20.5,50.6,22c-11.4-9.1-20.9-20.5-27.9-33.3
				C1164.8,260.5,1157.2,264.2,1150.1,268.9z"/>
		</g>
		<g>
			<path d="M1207.6,295.6c-0.4,0-0.8-0.1-1.1-0.3c0,0-0.3-0.2-0.3-0.2c-0.7-0.5-1.1-1.5-0.8-2.4c0.3-0.9,1.1-1.5,2-1.5h0.5
				c0.9,0,1.7,0.6,2,1.5c0.3,0.9,0,1.8-0.7,2.4C1208.9,295.4,1208.2,295.6,1207.6,295.6z"/>
		</g>
		<g>
			<path d="M1207.7,295.5c0,0-0.2,0-0.2,0c-0.4,0-0.9-0.2-1.2-0.4c-14.4-10.1-26.3-23.6-34.3-39.1c-0.3-0.6-0.3-1.2-0.1-1.8
				c0.2-0.6,0.7-1,1.3-1.2c22.3-7.5,46.8-7.5,69.2,0c0.6,0.2,1.1,0.7,1.3,1.2c0.2,0.6,0.2,1.2-0.1,1.8c-8.1,15.5-20,29.1-34.3,39.1
				c-0.4,0.3-0.8,0.4-1.2,0.4L1207.7,295.5z M1177,256.3c7.5,13.6,18.1,25.5,30.8,34.6c12.7-9.1,23.3-21,30.8-34.6
				C1218.5,250.1,1196.9,250.1,1177,256.3z"/>
		</g>
	</g>
	<g>
		<rect x="1131.4" y="386.2" fill="#FFFFFF" width="187.6" height="241"/>
		<path d="M1319,629.3h-187.6c-1.2,0-2.1-1-2.1-2.1v-241c0-1.2,1-2.1,2.1-2.1H1319c1.2,0,2.1,1,2.1,2.1v241
			C1321.2,628.4,1320.2,629.3,1319,629.3z M1133.5,625.1h183.3V388.3h-183.3V625.1z"/>
	</g>
	<g>
		<path fill="#FFFFFF" d="M1141.6,826.7c-0.1-1-0.8-1.8-1.7-2.1l-15.2-5c-1.6-5.9-4-11.5-7.1-16.8l6.9-14.3c0.4-0.9,0.3-2-0.3-2.7
			l-0.4-0.5c-0.4-0.5-0.8-1-1.2-1.5c-11.8-13.6-27.3-22.5-44.9-26c-1-0.2-2,0.2-2.6,1l-9.4,12.9c-6.1-0.3-12.2,0.2-18.1,1.6
			l-11.5-11c-0.7-0.7-1.8-0.9-2.7-0.5c-8.6,3.3-16.6,8.1-23.6,14.2c-7,6.1-12.9,13.3-17.4,21.4c-0.5,0.9-0.4,1.9,0.2,2.7l9.3,12.9
			c-2.2,5.7-3.6,11.7-4.1,17.7l-14,7.5c-0.9,0.5-1.4,1.4-1.3,2.4c1,17.9,7.7,34.6,19.5,48.1c0.4,0.5,0.9,1,1.4,1.5l0.4,0.4
			c0.7,0.7,1.7,1,2.7,0.7l15.1-4.9c4.7,3.8,10,7,15.6,9.4l2.8,15.7c0.2,1,0.9,1.8,1.9,2c6.7,1.8,13.6,2.7,20.5,2.7
			c11.6,0,23.2-2.6,33.6-7.4c0.9-0.4,1.5-1.3,1.5-2.3l0-16c2.6-1.7,5-3.5,7.3-5.5c2.2-2,4.4-4.1,6.4-6.5l15.8,2.2
			c1,0.1,1.9-0.3,2.5-1.1C1139.5,864,1143.8,845.2,1141.6,826.7z M1062.3,882.5c-25.1,0-45.5-20.4-45.5-45.5
			c0-25.1,20.4-45.5,45.5-45.5s45.5,20.4,45.5,45.5C1107.8,862.1,1087.4,882.5,1062.3,882.5z"/>
		<path d="M1062.2,918.4c-7.1,0-14.2-0.9-21-2.7c-1.8-0.5-3.1-1.9-3.4-3.7l-2.6-14.6c-5.1-2.2-9.8-5.1-14.2-8.5l-14,4.5
			c-1.8,0.6-3.7,0-4.9-1.3l-0.7-0.8c-0.4-0.4-0.7-0.8-1.1-1.2c-12.1-13.9-19-31-20-49.4c-0.1-1.8,0.9-3.5,2.5-4.4l13-7
			c0.6-5.5,1.8-10.9,3.7-16.1l-8.7-12c-1.1-1.5-1.2-3.5-0.3-5c4.6-8.3,10.6-15.7,17.8-22c7.2-6.3,15.4-11.2,24.2-14.6
			c1.7-0.7,3.6-0.3,4.9,1l10.7,10.3c5.4-1.2,10.9-1.6,16.4-1.4l8.7-11.9c1.1-1.5,3-2.2,4.7-1.8c18.1,3.5,34,12.8,46.1,26.7
			c0.4,0.5,0.9,1,1.3,1.6l0.4,0.5c1.2,1.4,1.4,3.4,0.6,5l-6.4,13.3c2.8,4.8,4.9,9.9,6.4,15.2l14.1,4.6c1.7,0.6,3,2.1,3.2,3.9
			c2.3,19-2.2,38.3-12.5,54.3c-0.9,1.3-2.4,2.2-4,2.2l0,0c-0.1,0-0.5,0-0.6,0l-14.7-2c-1.9,2.1-3.8,4-5.9,5.8
			c-2.1,1.8-4.3,3.5-6.5,5l0,14.8c0,1.8-1.1,3.5-2.7,4.3C1086,915.7,1074.1,918.4,1062.2,918.4z M1021.4,884.3c0.5,0,1,0.2,1.4,0.5
			c4.6,3.7,9.7,6.8,15.1,9.1c0.7,0.3,1.2,0.9,1.3,1.6l2.8,15.7l0.3,0.3c17.3,4.6,36.4,2.9,52.6-4.6c0.1-0.1,0.2-0.2,0.2-0.4l0.1-16
			c0-0.7,0.4-1.4,1-1.8c2.5-1.6,4.8-3.4,7-5.3c2.2-1.9,4.3-4,6.2-6.3c0.5-0.5,1.2-0.8,1.9-0.7l15.8,2.2l2.2,1l-1.8-1.2
			c9.8-15.2,14-33.5,11.9-51.5c0-0.2-0.1-0.3-0.3-0.3l-15.2-5c-0.7-0.2-1.2-0.8-1.4-1.5c-1.5-5.7-3.8-11.2-6.9-16.2
			c-0.4-0.6-0.4-1.4-0.1-2l6.9-14.3c0,0-0.1-0.4-0.1-0.4l-0.4-0.5c-0.4-0.5-0.8-1-1.2-1.4c-11.5-13.2-26.6-21.9-43.7-25.3
			c0,0-0.4,0.2-0.4,0.2l-9.4,12.9c-0.4,0.6-1.1,0.9-1.9,0.9c-5.9-0.3-11.8,0.2-17.5,1.5c-0.7,0.2-1.5,0-2-0.5l-11.5-11l-1.2-2.1
			l0.8,2c-8.4,3.3-16.1,7.9-23,13.9c-6.9,6-12.5,13-16.9,20.8c-0.1,0.1-0.1,0.3,0,0.4l9.3,12.9c0.4,0.6,0.5,1.4,0.3,2
			c-2.1,5.5-3.4,11.3-4,17.2c-0.1,0.7-0.5,1.4-1.1,1.7l-14,7.5c0.7,17.8,7.3,34,18.8,47.2l1.7,1.8l1.1,2.2l-0.7-2l15.1-4.9
			C1021,884.3,1021.2,884.3,1021.4,884.3z M1062.3,884.6c-26.3,0-47.6-21.4-47.6-47.6c0-26.3,21.4-47.6,47.6-47.6
			s47.6,21.4,47.6,47.6C1109.9,863.3,1088.5,884.6,1062.3,884.6z M1062.3,793.7c-23.9,0-43.3,19.4-43.3,43.3
			c0,23.9,19.4,43.3,43.3,43.3c23.9,0,43.3-19.4,43.3-43.3C1105.6,813.1,1086.2,793.7,1062.3,793.7z"/>
	</g>
	<g>
		<path d="M1204.7,429.9H1163c-1.2,0-2.1-1-2.1-2.1c0-1.2,1-2.1,2.1-2.1h41.8c1.2,0,2.1,1,2.1,2.1
			C1206.9,429,1205.9,429.9,1204.7,429.9z"/>
	</g>
	<g>
		<path d="M1204.7,482.5H1163c-1.2,0-2.1-1-2.1-2.1c0-1.2,1-2.1,2.1-2.1h41.8c1.2,0,2.1,1,2.1,2.1
			C1206.9,481.6,1205.9,482.5,1204.7,482.5z"/>
	</g>
	<g>
		<path d="M1204.7,535.2H1163c-1.2,0-2.1-1-2.1-2.1s1-2.1,2.1-2.1h41.8c1.2,0,2.1,1,2.1,2.1S1205.9,535.2,1204.7,535.2z"/>
	</g>
	<g>
		<path d="M1204.7,587.8H1163c-1.2,0-2.1-1-2.1-2.1c0-1.2,1-2.1,2.1-2.1h41.8c1.2,0,2.1,1,2.1,2.1
			C1206.9,586.8,1205.9,587.8,1204.7,587.8z"/>
	</g>
	<g>
		<path d="M1287.4,445h-60.8c-1.2,0-2.1-1-2.1-2.1v-30.1c0-1.2,1-2.1,2.1-2.1h60.8c1.2,0,2.1,1,2.1,2.1v30.1
			C1289.6,444,1288.6,445,1287.4,445z M1228.8,440.7h56.5v-25.8h-56.5V440.7z"/>
	</g>
	<g>
		<path d="M1287.4,497.6h-60.8c-1.2,0-2.1-1-2.1-2.1v-30.1c0-1.2,1-2.1,2.1-2.1h60.8c1.2,0,2.1,1,2.1,2.1v30.1
			C1289.6,496.6,1288.6,497.6,1287.4,497.6z M1228.8,493.3h56.5v-25.8h-56.5V493.3z"/>
	</g>
	<g>
		<path d="M1287.4,550.2h-60.8c-1.2,0-2.1-1-2.1-2.1V518c0-1.2,1-2.1,2.1-2.1h60.8c1.2,0,2.1,1,2.1,2.1V548
			C1289.6,549.2,1288.6,550.2,1287.4,550.2z M1228.8,545.9h56.5v-25.8h-56.5V545.9z"/>
	</g>
	<g>
		<path d="M1287.4,602.8h-60.8c-1.2,0-2.1-1-2.1-2.1v-30.1c0-1.2,1-2.1,2.1-2.1h60.8c1.2,0,2.1,1,2.1,2.1v30.1
			C1289.6,601.8,1288.6,602.8,1287.4,602.8z M1228.8,598.5h56.5v-25.8h-56.5V598.5z"/>
	</g>
	<g>
		<path d="M321.5,909.3H109.9c-20.4,0-37-16.6-37-37c0-20.4,16.6-37,37-37h211.6c1.2,0,2.1,1,2.1,2.1c0,1.2-1,2.1-2.1,2.1H109.9
			c-18,0-32.7,14.7-32.7,32.7c0,18,14.7,32.7,32.7,32.7h211.6c1.2,0,2.1,1,2.1,2.1S322.7,909.3,321.5,909.3z"/>
	</g>
	<g>
		<path d="M321.5,811.5H109.9c-20.4,0-37-16.6-37-37c0-20.4,16.6-37,37-37h211.6c1.2,0,2.1,1,2.1,2.1s-1,2.1-2.1,2.1H109.9
			c-18,0-32.7,14.7-32.7,32.7c0,18,14.7,32.7,32.7,32.7h211.6c1.2,0,2.1,1,2.1,2.1S322.7,811.5,321.5,811.5z"/>
	</g>
	<g>
		<path d="M315.6,763.1H122.8c-1.2,0-2.1-1-2.1-2.1s1-2.1,2.1-2.1h192.8c1.2,0,2.1,1,2.1,2.1S316.8,763.1,315.6,763.1z"/>
	</g>
	<g>
		<path d="M315.6,790.1H122.8c-1.2,0-2.1-1-2.1-2.1s1-2.1,2.1-2.1h192.8c1.2,0,2.1,1,2.1,2.1S316.8,790.1,315.6,790.1z"/>
	</g>
	<g>
		<path d="M315.6,861H122.8c-1.2,0-2.1-1-2.1-2.1c0-1.2,1-2.1,2.1-2.1h192.8c1.2,0,2.1,1,2.1,2.1C317.7,860,316.8,861,315.6,861z"/>
	</g>
	<g>
		<path d="M315.6,888H122.8c-1.2,0-2.1-1-2.1-2.1s1-2.1,2.1-2.1h192.8c1.2,0,2.1,1,2.1,2.1S316.8,888,315.6,888z"/>
	</g>
	<g>
		<g>
			<rect x="702.7" y="772.8" fill="#FFFFFF" width="115" height="114.6"/>
			<path d="M817.7,889.5h-115c-1.2,0-2.1-1-2.1-2.1V772.8c0-1.2,1-2.1,2.1-2.1h115c1.2,0,2.1,1,2.1,2.1v114.6
				C819.8,888.6,818.8,889.5,817.7,889.5z M704.8,885.2h110.7V774.9H704.8V885.2z"/>
		</g>
		<g>
			<rect x="732.2" y="794.4" fill="#FFFFFF" width="56" height="22.1"/>
			<path d="M788.2,818.7h-56c-1.2,0-2.1-1-2.1-2.1v-22.1c0-1.2,1-2.1,2.1-2.1h56c1.2,0,2.1,1,2.1,2.1v22.1
				C790.3,817.7,789.4,818.7,788.2,818.7z M734.3,814.4H786v-17.8h-51.7V814.4z"/>
		</g>
		<g>
			<rect x="732.2" y="843.6" fill="#FFFFFF" width="56" height="22.2"/>
			<path d="M788.2,867.9h-56c-1.2,0-2.1-1-2.1-2.1v-22.2c0-1.2,1-2.1,2.1-2.1h56c1.2,0,2.1,1,2.1,2.1v22.2
				C790.3,867,789.4,867.9,788.2,867.9z M734.3,863.6H786v-17.9h-51.7V863.6z"/>
		</g>
		<g>
			<path fill="#FFFFFF" d="M472.4,752.5c-29.2,0-54.4,16.8-66.6,41.3c-2.5-0.6-5.1-0.9-7.8-0.9c-18.8,0-34.1,15.2-34.1,34.1
				c0,18.8,15.3,34.1,34.1,34.1c1.8,0,3.5-0.2,5.3-0.4c10.9,27.5,37.7,47,69.2,47h231.2V752.5H472.4z M397.9,843.6
				c-9.2,0-16.7-7.5-16.7-16.7c0-9.2,7.5-16.7,16.7-16.7c9.2,0,16.7,7.5,16.7,16.7C414.6,836.2,407.1,843.6,397.9,843.6z"/>
			<path d="M703.6,909.8H472.4c-31,0-58.5-18.3-70.5-46.8c-1.4,0.2-2.7,0.2-3.9,0.2c-20,0-36.2-16.2-36.2-36.2s16.2-36.2,36.2-36.2
				c2.2,0,4.4,0.2,6.7,0.6c13.3-25.3,39.1-41,67.8-41h231.2c1.2,0,2.1,1,2.1,2.1v155.1C705.7,908.8,704.8,909.8,703.6,909.8z
				 M403.2,858.4c0.9,0,1.7,0.5,2,1.4c11,27.8,37.4,45.7,67.2,45.7h229V754.7h-229c-27.6,0-52.3,15.4-64.7,40.1
				c-0.4,0.9-1.4,1.4-2.4,1.1c-2.6-0.6-5-0.9-7.4-0.9c-17.6,0-31.9,14.3-31.9,31.9s14.3,31.9,31.9,31.9c1.5,0,3.1-0.1,4.9-0.4
				C403,858.4,403.1,858.4,403.2,858.4z M397.9,845.8c-10.4,0-18.8-8.4-18.8-18.8s8.4-18.8,18.8-18.8c10.4,0,18.8,8.4,18.8,18.8
				S408.3,845.8,397.9,845.8z M397.9,812.5c-8,0-14.5,6.5-14.5,14.5s6.5,14.5,14.5,14.5c8,0,14.5-6.5,14.5-14.5
				S405.9,812.5,397.9,812.5z"/>
		</g>
		<g>
			<path d="M668.7,884.1H524.1c-1.2,0-2.1-1-2.1-2.1c0-1.2,1-2.1,2.1-2.1h144.6c1.2,0,2.1,1,2.1,2.1
				C670.9,883.2,669.9,884.1,668.7,884.1z"/>
		</g>
	</g>
	<g>
		<path d="M917.1,832.2H841c-1.2,0-2.1-1-2.1-2.1s1-2.1,2.1-2.1h74v-78.8c0-1.2,1-2.1,2.1-2.1c1.2,0,2.1,1,2.1,2.1v80.9
			C919.3,831.3,918.3,832.2,917.1,832.2z"/>
	</g>
	<g>
		<path d="M950.6,784.7c-0.6,0-1.1-0.2-1.5-0.6l-31.9-31.9l-31.9,31.9c-0.8,0.8-2.2,0.8-3,0c-0.8-0.8-0.8-2.2,0-3l33.4-33.4
			c0.8-0.8,2.2-0.8,3,0l33.4,33.4c0.8,0.8,0.8,2.2,0,3C951.7,784.5,951.1,784.7,950.6,784.7z"/>
	</g>
	<g>
		<path d="M159.1,345.6c-0.5,0-1.1-0.2-1.5-0.6l-28.9-28.9c-0.8-0.8-0.8-2.2,0-3c0.8-0.8,2.2-0.8,3,0l27.4,27.4l27.4-27.4
			c0.8-0.8,2.2-0.8,3,0c0.8,0.8,0.8,2.2,0,3L160.6,345C160.2,345.4,159.6,345.6,159.1,345.6z"/>
	</g>
	<g>
		<rect x="1208" y="786.4" fill="#FFFFFF" width="79.4" height="79.4"/>
		<path d="M1287.4,867.9H1208c-1.2,0-2.1-1-2.1-2.1v-79.4c0-1.2,1-2.1,2.1-2.1h79.4c1.2,0,2.1,1,2.1,2.1v79.4
			C1289.6,867,1288.6,867.9,1287.4,867.9z M1210.1,863.6h75.1v-75.1h-75.1V863.6z"/>
	</g>
	<g>
		<rect x="831" y="143.8" fill="#FFFFFF" width="42.2" height="42.2"/>
		<path d="M873.2,188.2H831c-1.2,0-2.1-1-2.1-2.1v-42.2c0-1.2,1-2.1,2.1-2.1h42.2c1.2,0,2.1,1,2.1,2.1v42.2
			C875.4,187.3,874.4,188.2,873.2,188.2z M833.1,183.9h38V146h-38V183.9z"/>
	</g>
	<g>
		<rect x="897" y="143.8" fill="#FFFFFF" width="42.2" height="42.2"/>
		<path d="M939.3,188.2H897c-1.2,0-2.1-1-2.1-2.1v-42.2c0-1.2,1-2.1,2.1-2.1h42.2c1.2,0,2.1,1,2.1,2.1v42.2
			C941.4,187.3,940.5,188.2,939.3,188.2z M899.2,183.9h38V146h-38V183.9z"/>
	</g>
	<g>
		<rect x="963.1" y="143.8" fill="#FFFFFF" width="42.3" height="42.2"/>
		<path d="M1005.3,188.2h-42.3c-1.2,0-2.1-1-2.1-2.1v-42.2c0-1.2,1-2.1,2.1-2.1h42.3c1.2,0,2.1,1,2.1,2.1v42.2
			C1007.5,187.3,1006.5,188.2,1005.3,188.2z M965.2,183.9h38V146h-38V183.9z"/>
	</g>
</g>
</svg>
